%TF.GenerationSoftware,Altium Limited,Altium Designer,25.8.1 (18)*%
G04 Layer_Color=0*
%FSLAX45Y45*%
%MOMM*%
%TF.SameCoordinates,177DAE0C-5750-4891-A40F-8E88CBB746AF*%
%TF.FilePolarity,Positive*%
%TF.FileFunction,Plated,1,4,PTH,Drill*%
%TF.Part,Single*%
G01*
G75*
%TA.AperFunction,ComponentDrill*%
%ADD121C,1.10000*%
%ADD122C,0.88900*%
%ADD123C,1.10000*%
%ADD124C,1.02000*%
%ADD125C,0.55000*%
%ADD126C,1.30000*%
%TA.AperFunction,ViaDrill,NotFilled*%
%ADD127C,0.20000*%
%ADD128C,3.00000*%
%ADD129C,2.50000*%
D121*
X10027234Y4161752D02*
D03*
X11805234D02*
D03*
X10535234D02*
D03*
X9265234D02*
D03*
X11805234Y2383752D02*
D03*
X10535234D02*
D03*
X9265234D02*
D03*
X7995234Y4161752D02*
D03*
Y2383752D02*
D03*
X9773234Y4161752D02*
D03*
X11297234Y2383752D02*
D03*
X10281234D02*
D03*
X10789234Y4161752D02*
D03*
X9519234D02*
D03*
Y2383752D02*
D03*
X11043234Y4161752D02*
D03*
X8249234Y2383752D02*
D03*
X9011234D02*
D03*
X8757234D02*
D03*
X7487234D02*
D03*
X8503234D02*
D03*
X10789234D02*
D03*
X12313234Y4161752D02*
D03*
X10281234D02*
D03*
X7741234D02*
D03*
X9011234D02*
D03*
X8757234D02*
D03*
X11043234Y2383752D02*
D03*
X12059234D02*
D03*
X12313234D02*
D03*
X8503234Y4161752D02*
D03*
X11551234D02*
D03*
X8249234D02*
D03*
X11297234D02*
D03*
X7741234Y2383752D02*
D03*
X7487234Y4161752D02*
D03*
X12059234D02*
D03*
X9773234Y2383752D02*
D03*
X10027234D02*
D03*
X11551234D02*
D03*
D122*
X978500Y2628900D02*
D03*
X1740500Y3389000D02*
D03*
X2248500D02*
D03*
X1486500D02*
D03*
X978500Y5675000D02*
D03*
X1232500D02*
D03*
X1740500D02*
D03*
X1486500D02*
D03*
X2502500D02*
D03*
X978500Y3389000D02*
D03*
X1232500D02*
D03*
X1994500D02*
D03*
X2756500D02*
D03*
Y5675000D02*
D03*
X1994500D02*
D03*
X2502500Y3389000D02*
D03*
X2248500Y5675000D02*
D03*
X2756500Y2628900D02*
D03*
Y342900D02*
D03*
X1994500D02*
D03*
X2248500D02*
D03*
X1740500D02*
D03*
X1486500D02*
D03*
X1232500D02*
D03*
X978500D02*
D03*
X2502500Y2628900D02*
D03*
X1232500D02*
D03*
X1486500D02*
D03*
X1740500D02*
D03*
X1994500D02*
D03*
X2502500Y342900D02*
D03*
X2248500Y2628900D02*
D03*
D123*
X5000000Y5400000D02*
D03*
X5254000D02*
D03*
X5508000D02*
D03*
X5762000D02*
D03*
D124*
X8506000Y1547500D02*
D03*
X8760000D02*
D03*
X8252000D02*
D03*
D125*
X9775000Y895000D02*
D03*
Y755000D02*
D03*
D126*
X12100000Y1199000D02*
D03*
Y945000D02*
D03*
D127*
X9662500Y4972500D02*
D03*
X9912500Y5162500D02*
D03*
X9447500Y5150000D02*
D03*
X4720000Y5237500D02*
D03*
X10015000Y4802500D02*
D03*
X10325000Y5080000D02*
D03*
X10343449Y4945572D02*
D03*
X10355000Y5142500D02*
D03*
X10357500Y5022500D02*
D03*
X11085870Y1839284D02*
D03*
X10857500Y1955000D02*
D03*
X10327500Y1995000D02*
D03*
X10477500Y2045000D02*
D03*
X10922500Y1940000D02*
D03*
X11270000Y1965000D02*
D03*
X11189208Y1991125D02*
D03*
X11152500Y2080000D02*
D03*
X10978318Y2037521D02*
D03*
X10877500Y2037500D02*
D03*
X10712500Y2057500D02*
D03*
X10572500Y2040000D02*
D03*
X10397500D02*
D03*
X11052500Y4592500D02*
D03*
X11157500Y4540000D02*
D03*
X10742500Y4617500D02*
D03*
X10482500Y4555000D02*
D03*
X10465000Y5512500D02*
D03*
X10641239Y5511808D02*
D03*
X10797411Y5501396D02*
D03*
X11032500Y5502500D02*
D03*
X11242500Y5505000D02*
D03*
X11305000Y5070000D02*
D03*
X11300000Y4845000D02*
D03*
X10780000Y4805000D02*
D03*
X10942500Y4690000D02*
D03*
X11067500Y4735000D02*
D03*
X11302500Y4527500D02*
D03*
X10652500Y4535000D02*
D03*
X10915000Y4482500D02*
D03*
X2753680Y815000D02*
D03*
X10265000Y1022500D02*
D03*
X10320000Y1385000D02*
D03*
X10192500Y1025000D02*
D03*
X10112500Y1027500D02*
D03*
X6857500Y197500D02*
D03*
X5857500Y182500D02*
D03*
X4489926Y191019D02*
D03*
X7125000Y397500D02*
D03*
X6112500D02*
D03*
X8218420Y1204600D02*
D03*
X7842500Y4585000D02*
D03*
X5963400Y4185900D02*
D03*
X5877500Y4170000D02*
D03*
X5120000Y3630000D02*
D03*
X5261471Y3725723D02*
D03*
X5330000Y3740000D02*
D03*
X5396849Y3719235D02*
D03*
X5335000Y3570000D02*
D03*
X5350000Y5132500D02*
D03*
X5358190Y5030410D02*
D03*
X10348584Y4803266D02*
D03*
X4980000Y5007500D02*
D03*
X4971136Y4857550D02*
D03*
X7128750Y1987500D02*
D03*
X7126250Y2058750D02*
D03*
Y2151250D02*
D03*
X4635000Y1987500D02*
D03*
X5881250D02*
D03*
X5878750Y2058750D02*
D03*
X4632500Y2060000D02*
D03*
X5878750Y2151250D02*
D03*
X4632500Y2152500D02*
D03*
X8252500Y1797396D02*
D03*
X9160000Y5522500D02*
D03*
X3475000Y2675000D02*
D03*
X8820000Y5210000D02*
D03*
X9101180Y3607500D02*
D03*
X10413820Y3137500D02*
D03*
X10708780Y4951599D02*
D03*
X10570100Y4667920D02*
D03*
X5180520Y4792500D02*
D03*
X6700920Y266700D02*
D03*
X5740000Y4630000D02*
D03*
X6340000Y4030000D02*
D03*
X6490000Y3632500D02*
D03*
X7080000Y4512500D02*
D03*
X6937500Y4610000D02*
D03*
X6950000Y4927500D02*
D03*
X7182500Y5222500D02*
D03*
X7830000Y4957500D02*
D03*
X8387500Y4940000D02*
D03*
X8817500Y5097500D02*
D03*
X8642500Y5392500D02*
D03*
X7832500Y1672500D02*
D03*
X7585000Y1677500D02*
D03*
X9212500Y1877500D02*
D03*
X8817500Y1845000D02*
D03*
X8755000Y2052500D02*
D03*
X11076950Y3812950D02*
D03*
X12198550Y4056050D02*
D03*
X11157500Y2485000D02*
D03*
X10547500Y2915000D02*
D03*
X10444450Y2995050D02*
D03*
X12410550Y2652450D02*
D03*
X8494450Y3470050D02*
D03*
X8366450Y811950D02*
D03*
X4464451Y5007550D02*
D03*
X2868050Y3829950D02*
D03*
X2745000Y717500D02*
D03*
X11180200Y5152500D02*
D03*
X12445001Y3545000D02*
D03*
X12436026Y3002500D02*
D03*
X10367500Y3195000D02*
D03*
X10197500Y3067500D02*
D03*
X11190625Y1863125D02*
D03*
X10863524Y5021575D02*
D03*
X9872600Y5514100D02*
D03*
X9316975Y5493475D02*
D03*
X8397500Y5045000D02*
D03*
X7907500Y4982500D02*
D03*
X4860000Y4115000D02*
D03*
X6626875Y4058125D02*
D03*
X5731876Y4530625D02*
D03*
X5240000Y4645000D02*
D03*
X7045000Y4967500D02*
D03*
X7037500Y4615000D02*
D03*
X7172500Y4617500D02*
D03*
X7185000Y5052500D02*
D03*
X9160000Y4812500D02*
D03*
X8040000Y4805000D02*
D03*
X7477500Y1675000D02*
D03*
X7900000Y1612500D02*
D03*
X3745000Y3192500D02*
D03*
X8820000Y1752500D02*
D03*
X8817500Y1987500D02*
D03*
X3785000Y2557500D02*
D03*
X9520000Y4526501D02*
D03*
X9780000Y4547500D02*
D03*
X10670000Y542500D02*
D03*
X10597500Y465000D02*
D03*
X9205000Y1310000D02*
D03*
X5600000Y4790000D02*
D03*
X5105000Y4662500D02*
D03*
X11140000Y4902500D02*
D03*
X8397500Y5437500D02*
D03*
X9155000Y5277500D02*
D03*
X8257500Y5012500D02*
D03*
X11697874Y1499800D02*
D03*
X11040000Y1490000D02*
D03*
Y1340000D02*
D03*
X10767500Y1350000D02*
D03*
X9682500Y1392500D02*
D03*
X9468526Y2965090D02*
D03*
X10747500Y537500D02*
D03*
X10677500Y1012500D02*
D03*
X10607500Y530000D02*
D03*
X10597500Y387500D02*
D03*
X7872500Y5309300D02*
D03*
X5432500Y4017500D02*
D03*
Y4127500D02*
D03*
X5322500D02*
D03*
Y4017500D02*
D03*
X5055355Y4158442D02*
D03*
X4847500Y3930000D02*
D03*
X7445000Y1177500D02*
D03*
X4752500Y382500D02*
D03*
X10490200Y5092700D02*
D03*
X10515100Y5334000D02*
D03*
X10896600Y2870200D02*
D03*
X8699500Y1079500D02*
D03*
X9182100Y1117600D02*
D03*
X9715500D02*
D03*
X9944100D02*
D03*
X8763000Y723900D02*
D03*
X11353800Y2019300D02*
D03*
X6489700Y3733800D02*
D03*
X4800600Y3403600D02*
D03*
X5404641Y3383759D02*
D03*
X5664200Y3403600D02*
D03*
X5803900D02*
D03*
X5943600D02*
D03*
X5524500D02*
D03*
X5245100D02*
D03*
X5105400D02*
D03*
X4953000D02*
D03*
X10426700Y5334000D02*
D03*
X9588500Y5308600D02*
D03*
D128*
X12100000Y5600000D02*
D03*
Y400000D02*
D03*
X400000Y5600000D02*
D03*
Y400000D02*
D03*
D129*
X6555999Y5400000D02*
D03*
X4206001Y3020005D02*
D03*
X6555999D02*
D03*
X4206001Y5400000D02*
D03*
%TF.MD5,1504d5ea6c9613d33731805746d6f88d*%
M02*
