%TF.GenerationSoftware,Altium Limited,Altium Designer,25.8.1 (18)*%
G04 Layer_Color=8421504*
%FSLAX45Y45*%
%MOMM*%
%TF.SameCoordinates,177DAE0C-5750-4891-A40F-8E88CBB746AF*%
%TF.FilePolarity,Positive*%
%TF.FileFunction,Paste,Top*%
%TF.Part,Single*%
G01*
G75*
%TA.AperFunction,SMDPad,CuDef*%
%ADD13R,0.72000X0.30000*%
G04:AMPARAMS|DCode=14|XSize=0.76mm|YSize=0.6604mm|CornerRadius=0.08255mm|HoleSize=0mm|Usage=FLASHONLY|Rotation=270.000|XOffset=0mm|YOffset=0mm|HoleType=Round|Shape=RoundedRectangle|*
%AMROUNDEDRECTD14*
21,1,0.76000,0.49530,0,0,270.0*
21,1,0.59490,0.66040,0,0,270.0*
1,1,0.16510,-0.24765,-0.29745*
1,1,0.16510,-0.24765,0.29745*
1,1,0.16510,0.24765,0.29745*
1,1,0.16510,0.24765,-0.29745*
%
%ADD14ROUNDEDRECTD14*%
%ADD15R,0.30000X0.60000*%
G04:AMPARAMS|DCode=16|XSize=0.76mm|YSize=0.6604mm|CornerRadius=0.08255mm|HoleSize=0mm|Usage=FLASHONLY|Rotation=180.000|XOffset=0mm|YOffset=0mm|HoleType=Round|Shape=RoundedRectangle|*
%AMROUNDEDRECTD16*
21,1,0.76000,0.49530,0,0,180.0*
21,1,0.59490,0.66040,0,0,180.0*
1,1,0.16510,-0.29745,0.24765*
1,1,0.16510,0.29745,0.24765*
1,1,0.16510,0.29745,-0.24765*
1,1,0.16510,-0.29745,-0.24765*
%
%ADD16ROUNDEDRECTD16*%
%TA.AperFunction,ConnectorPad*%
%ADD17O,1.80000X1.10000*%
%ADD18O,1.45000X1.05000*%
%TA.AperFunction,SMDPad,CuDef*%
%ADD19R,1.00000X1.00000*%
%ADD20O,0.95000X0.25000*%
%ADD21O,0.25000X0.95000*%
G04:AMPARAMS|DCode=22|XSize=1.5mm|YSize=1.5mm|CornerRadius=0.3mm|HoleSize=0mm|Usage=FLASHONLY|Rotation=270.000|XOffset=0mm|YOffset=0mm|HoleType=Round|Shape=RoundedRectangle|*
%AMROUNDEDRECTD22*
21,1,1.50000,0.90000,0,0,270.0*
21,1,0.90000,1.50000,0,0,270.0*
1,1,0.60000,-0.45000,-0.45000*
1,1,0.60000,-0.45000,0.45000*
1,1,0.60000,0.45000,0.45000*
1,1,0.60000,0.45000,-0.45000*
%
%ADD22ROUNDEDRECTD22*%
%ADD23R,0.60000X1.10000*%
%ADD24C,1.57480*%
G04:AMPARAMS|DCode=25|XSize=1.68435mm|YSize=0.62684mm|CornerRadius=0.31342mm|HoleSize=0mm|Usage=FLASHONLY|Rotation=0.000|XOffset=0mm|YOffset=0mm|HoleType=Round|Shape=RoundedRectangle|*
%AMROUNDEDRECTD25*
21,1,1.68435,0.00000,0,0,0.0*
21,1,1.05751,0.62684,0,0,0.0*
1,1,0.62684,0.52875,0.00000*
1,1,0.62684,-0.52875,0.00000*
1,1,0.62684,-0.52875,0.00000*
1,1,0.62684,0.52875,0.00000*
%
%ADD25ROUNDEDRECTD25*%
%ADD26R,0.80000X0.90000*%
%ADD27R,2.65000X2.65000*%
%ADD28O,0.85000X0.20000*%
%ADD29R,1.60000X0.50000*%
%ADD30R,2.10000X1.40000*%
%ADD31O,0.20000X0.85000*%
%ADD32R,1.50000X1.60000*%
%ADD33R,1.20000X1.20000*%
%ADD34R,0.80000X0.80000*%
%ADD35R,1.68435X0.62684*%
%ADD36R,1.57480X1.57480*%
%TA.AperFunction,NonConductor*%
%ADD118R,0.70000X0.23000*%
%ADD119R,0.70000X0.23000*%
G36*
X12392999Y4401500D02*
X12393230Y4161755D01*
X12393230Y4156512D01*
X12391863Y4146115D01*
X12389149Y4135985D01*
X12385137Y4126296D01*
X12379893Y4117214D01*
X12373509Y4108893D01*
X12366093Y4101478D01*
X12357773Y4095095D01*
X12348690Y4089853D01*
X12339000Y4085841D01*
X12328870Y4083128D01*
X12318472Y4081762D01*
X12313229Y4081763D01*
X12307986Y4081762D01*
X12297589Y4083130D01*
X12287460Y4085844D01*
X12277771Y4089856D01*
X12268690Y4095099D01*
X12260370Y4101483D01*
X12252955Y4108897D01*
X12246571Y4117217D01*
X12241328Y4126298D01*
X12237315Y4135986D01*
X12234602Y4146115D01*
X12233233Y4156512D01*
X12233234Y4161755D01*
X12233234Y4161755D01*
X12232999Y4401501D01*
X12392999Y4401500D01*
D02*
G37*
G36*
X12138999D02*
X12139230Y4161755D01*
X12139230Y4156512D01*
X12137863Y4146115D01*
X12135149Y4135985D01*
X12131137Y4126296D01*
X12125893Y4117214D01*
X12119509Y4108893D01*
X12112093Y4101478D01*
X12103773Y4095095D01*
X12094690Y4089853D01*
X12085000Y4085841D01*
X12074870Y4083128D01*
X12064472Y4081762D01*
X12059229Y4081763D01*
X12053986Y4081762D01*
X12043589Y4083130D01*
X12033460Y4085844D01*
X12023771Y4089856D01*
X12014690Y4095099D01*
X12006370Y4101483D01*
X11998955Y4108897D01*
X11992571Y4117217D01*
X11987328Y4126298D01*
X11983315Y4135986D01*
X11980602Y4146115D01*
X11979233Y4156512D01*
X11979234Y4161755D01*
X11979234Y4161755D01*
X11978999Y4401501D01*
X12138999Y4401500D01*
D02*
G37*
G36*
X11884999D02*
X11885230Y4161755D01*
X11885230Y4156512D01*
X11883863Y4146115D01*
X11881149Y4135985D01*
X11877137Y4126296D01*
X11871893Y4117214D01*
X11865509Y4108893D01*
X11858093Y4101478D01*
X11849773Y4095095D01*
X11840690Y4089853D01*
X11831000Y4085841D01*
X11820870Y4083128D01*
X11810472Y4081762D01*
X11805229Y4081763D01*
X11799986Y4081762D01*
X11789589Y4083130D01*
X11779460Y4085844D01*
X11769771Y4089856D01*
X11760690Y4095099D01*
X11752370Y4101483D01*
X11744955Y4108897D01*
X11738571Y4117217D01*
X11733328Y4126298D01*
X11729315Y4135986D01*
X11726602Y4146115D01*
X11725233Y4156512D01*
X11725234Y4161755D01*
X11725234Y4161755D01*
X11724999Y4401501D01*
X11884999Y4401500D01*
D02*
G37*
G36*
X11630999D02*
X11631230Y4161755D01*
X11631230Y4156512D01*
X11629863Y4146115D01*
X11627149Y4135985D01*
X11623137Y4126296D01*
X11617893Y4117214D01*
X11611509Y4108893D01*
X11604093Y4101478D01*
X11595773Y4095095D01*
X11586690Y4089853D01*
X11577000Y4085841D01*
X11566870Y4083128D01*
X11556472Y4081762D01*
X11551229Y4081763D01*
X11545986Y4081762D01*
X11535589Y4083130D01*
X11525460Y4085844D01*
X11515771Y4089856D01*
X11506690Y4095099D01*
X11498370Y4101483D01*
X11490955Y4108897D01*
X11484571Y4117217D01*
X11479328Y4126298D01*
X11475315Y4135986D01*
X11472602Y4146115D01*
X11471233Y4156512D01*
X11471234Y4161755D01*
X11471234Y4161755D01*
X11470999Y4401501D01*
X11630999Y4401500D01*
D02*
G37*
G36*
X11376999D02*
X11377230Y4161755D01*
X11377230Y4156512D01*
X11375863Y4146115D01*
X11373149Y4135985D01*
X11369137Y4126296D01*
X11363893Y4117214D01*
X11357509Y4108893D01*
X11350093Y4101478D01*
X11341773Y4095095D01*
X11332690Y4089853D01*
X11323000Y4085841D01*
X11312870Y4083128D01*
X11302472Y4081762D01*
X11297229Y4081763D01*
X11291986Y4081762D01*
X11281589Y4083130D01*
X11271460Y4085844D01*
X11261771Y4089856D01*
X11252690Y4095099D01*
X11244370Y4101483D01*
X11236955Y4108897D01*
X11230571Y4117217D01*
X11225328Y4126298D01*
X11221315Y4135986D01*
X11218602Y4146115D01*
X11217233Y4156512D01*
X11217234Y4161755D01*
X11217234Y4161755D01*
X11216999Y4401501D01*
X11376999Y4401500D01*
D02*
G37*
G36*
X11122999D02*
X11123230Y4161755D01*
X11123230Y4156512D01*
X11121863Y4146115D01*
X11119149Y4135985D01*
X11115137Y4126296D01*
X11109893Y4117214D01*
X11103509Y4108893D01*
X11096093Y4101478D01*
X11087773Y4095095D01*
X11078690Y4089853D01*
X11069000Y4085841D01*
X11058870Y4083128D01*
X11048472Y4081762D01*
X11043229Y4081763D01*
X11037986Y4081762D01*
X11027589Y4083130D01*
X11017460Y4085844D01*
X11007771Y4089856D01*
X10998690Y4095099D01*
X10990370Y4101483D01*
X10982955Y4108897D01*
X10976571Y4117217D01*
X10971328Y4126298D01*
X10967315Y4135986D01*
X10964602Y4146115D01*
X10963233Y4156512D01*
X10963234Y4161755D01*
X10963234Y4161755D01*
X10962999Y4401501D01*
X11122999Y4401500D01*
D02*
G37*
G36*
X10868999D02*
X10869230Y4161755D01*
X10869230Y4156512D01*
X10867863Y4146115D01*
X10865149Y4135985D01*
X10861137Y4126296D01*
X10855893Y4117214D01*
X10849509Y4108893D01*
X10842093Y4101478D01*
X10833773Y4095095D01*
X10824690Y4089853D01*
X10815000Y4085841D01*
X10804870Y4083128D01*
X10794472Y4081762D01*
X10789229Y4081763D01*
X10783986Y4081762D01*
X10773589Y4083130D01*
X10763460Y4085844D01*
X10753771Y4089856D01*
X10744690Y4095099D01*
X10736370Y4101483D01*
X10728955Y4108897D01*
X10722571Y4117217D01*
X10717328Y4126298D01*
X10713315Y4135986D01*
X10710602Y4146115D01*
X10709233Y4156512D01*
X10709234Y4161755D01*
X10709234Y4161755D01*
X10708999Y4401501D01*
X10868999Y4401500D01*
D02*
G37*
G36*
X10614999D02*
X10615230Y4161755D01*
X10615230Y4156512D01*
X10613863Y4146115D01*
X10611149Y4135985D01*
X10607137Y4126296D01*
X10601893Y4117214D01*
X10595509Y4108893D01*
X10588093Y4101478D01*
X10579773Y4095095D01*
X10570690Y4089853D01*
X10561000Y4085841D01*
X10550870Y4083128D01*
X10540472Y4081762D01*
X10535229Y4081763D01*
X10529986Y4081762D01*
X10519589Y4083130D01*
X10509460Y4085844D01*
X10499771Y4089856D01*
X10490690Y4095099D01*
X10482370Y4101483D01*
X10474955Y4108897D01*
X10468571Y4117217D01*
X10463328Y4126298D01*
X10459315Y4135986D01*
X10456602Y4146115D01*
X10455233Y4156512D01*
X10455234Y4161755D01*
X10455234Y4161755D01*
X10454999Y4401501D01*
X10614999Y4401500D01*
D02*
G37*
G36*
X10360999D02*
X10361230Y4161755D01*
X10361230Y4156512D01*
X10359863Y4146115D01*
X10357149Y4135985D01*
X10353137Y4126296D01*
X10347893Y4117214D01*
X10341509Y4108893D01*
X10334093Y4101478D01*
X10325773Y4095095D01*
X10316690Y4089853D01*
X10307000Y4085841D01*
X10296870Y4083128D01*
X10286472Y4081762D01*
X10281229Y4081763D01*
X10275986Y4081762D01*
X10265589Y4083130D01*
X10255460Y4085844D01*
X10245771Y4089856D01*
X10236690Y4095099D01*
X10228370Y4101483D01*
X10220955Y4108897D01*
X10214571Y4117217D01*
X10209328Y4126298D01*
X10205315Y4135986D01*
X10202602Y4146115D01*
X10201233Y4156512D01*
X10201234Y4161755D01*
X10201234Y4161755D01*
X10200999Y4401501D01*
X10360999Y4401500D01*
D02*
G37*
G36*
X10106999D02*
X10107230Y4161755D01*
X10107230Y4156512D01*
X10105863Y4146115D01*
X10103149Y4135985D01*
X10099137Y4126296D01*
X10093893Y4117214D01*
X10087509Y4108893D01*
X10080093Y4101478D01*
X10071773Y4095095D01*
X10062690Y4089853D01*
X10053000Y4085841D01*
X10042870Y4083128D01*
X10032472Y4081762D01*
X10027229Y4081763D01*
X10021986Y4081762D01*
X10011589Y4083130D01*
X10001460Y4085844D01*
X9991771Y4089856D01*
X9982690Y4095099D01*
X9974370Y4101483D01*
X9966955Y4108897D01*
X9960571Y4117217D01*
X9955328Y4126298D01*
X9951315Y4135986D01*
X9948602Y4146115D01*
X9947233Y4156512D01*
X9947234Y4161755D01*
X9947234Y4161755D01*
X9946999Y4401501D01*
X10106999Y4401500D01*
D02*
G37*
G36*
X9852999D02*
X9853230Y4161755D01*
X9853230Y4156512D01*
X9851863Y4146115D01*
X9849149Y4135985D01*
X9845137Y4126296D01*
X9839893Y4117214D01*
X9833509Y4108893D01*
X9826093Y4101478D01*
X9817773Y4095095D01*
X9808690Y4089853D01*
X9799000Y4085841D01*
X9788870Y4083128D01*
X9778472Y4081762D01*
X9773229Y4081763D01*
X9767986Y4081762D01*
X9757589Y4083130D01*
X9747460Y4085844D01*
X9737771Y4089856D01*
X9728690Y4095099D01*
X9720370Y4101483D01*
X9712955Y4108897D01*
X9706571Y4117217D01*
X9701328Y4126298D01*
X9697315Y4135986D01*
X9694602Y4146115D01*
X9693233Y4156512D01*
X9693234Y4161755D01*
X9693234Y4161755D01*
X9692999Y4401501D01*
X9852999Y4401500D01*
D02*
G37*
G36*
X9598999D02*
X9599230Y4161755D01*
X9599230Y4156512D01*
X9597863Y4146115D01*
X9595149Y4135985D01*
X9591137Y4126296D01*
X9585893Y4117214D01*
X9579509Y4108893D01*
X9572093Y4101478D01*
X9563773Y4095095D01*
X9554690Y4089853D01*
X9545000Y4085841D01*
X9534870Y4083128D01*
X9524472Y4081762D01*
X9519229Y4081763D01*
X9513986Y4081762D01*
X9503589Y4083130D01*
X9493460Y4085844D01*
X9483771Y4089856D01*
X9474690Y4095099D01*
X9466370Y4101483D01*
X9458955Y4108897D01*
X9452571Y4117217D01*
X9447328Y4126298D01*
X9443315Y4135986D01*
X9440602Y4146115D01*
X9439233Y4156512D01*
X9439234Y4161755D01*
X9439234Y4161755D01*
X9438999Y4401501D01*
X9598999Y4401500D01*
D02*
G37*
G36*
X9344999D02*
X9345230Y4161755D01*
X9345230Y4156512D01*
X9343863Y4146115D01*
X9341149Y4135985D01*
X9337137Y4126296D01*
X9331893Y4117214D01*
X9325509Y4108893D01*
X9318093Y4101478D01*
X9309773Y4095095D01*
X9300690Y4089853D01*
X9291000Y4085841D01*
X9280870Y4083128D01*
X9270472Y4081762D01*
X9265229Y4081763D01*
X9259986Y4081762D01*
X9249589Y4083130D01*
X9239460Y4085844D01*
X9229771Y4089856D01*
X9220690Y4095099D01*
X9212370Y4101483D01*
X9204955Y4108897D01*
X9198571Y4117217D01*
X9193328Y4126298D01*
X9189315Y4135986D01*
X9186602Y4146115D01*
X9185233Y4156512D01*
X9185234Y4161755D01*
X9185234Y4161755D01*
X9184999Y4401501D01*
X9344999Y4401500D01*
D02*
G37*
G36*
X9090999D02*
X9091230Y4161755D01*
X9091230Y4156512D01*
X9089863Y4146115D01*
X9087149Y4135985D01*
X9083137Y4126296D01*
X9077893Y4117214D01*
X9071509Y4108893D01*
X9064093Y4101478D01*
X9055773Y4095095D01*
X9046690Y4089853D01*
X9037000Y4085841D01*
X9026870Y4083128D01*
X9016472Y4081762D01*
X9011229Y4081763D01*
X9005986Y4081762D01*
X8995589Y4083130D01*
X8985460Y4085844D01*
X8975771Y4089856D01*
X8966690Y4095099D01*
X8958370Y4101483D01*
X8950955Y4108897D01*
X8944571Y4117217D01*
X8939328Y4126298D01*
X8935315Y4135986D01*
X8932602Y4146115D01*
X8931233Y4156512D01*
X8931234Y4161755D01*
X8931234Y4161755D01*
X8930999Y4401501D01*
X9090999Y4401500D01*
D02*
G37*
G36*
X8836999D02*
X8837230Y4161755D01*
X8837230Y4156512D01*
X8835863Y4146115D01*
X8833149Y4135985D01*
X8829137Y4126296D01*
X8823893Y4117214D01*
X8817509Y4108893D01*
X8810093Y4101478D01*
X8801773Y4095095D01*
X8792690Y4089853D01*
X8783000Y4085841D01*
X8772870Y4083128D01*
X8762472Y4081762D01*
X8757229Y4081763D01*
X8751986Y4081762D01*
X8741589Y4083130D01*
X8731460Y4085844D01*
X8721771Y4089856D01*
X8712690Y4095099D01*
X8704370Y4101483D01*
X8696955Y4108897D01*
X8690571Y4117217D01*
X8685328Y4126298D01*
X8681315Y4135986D01*
X8678602Y4146115D01*
X8677233Y4156512D01*
X8677234Y4161755D01*
X8677234Y4161755D01*
X8676999Y4401501D01*
X8836999Y4401500D01*
D02*
G37*
G36*
X8582999D02*
X8583230Y4161755D01*
X8583230Y4156512D01*
X8581863Y4146115D01*
X8579149Y4135985D01*
X8575137Y4126296D01*
X8569893Y4117214D01*
X8563509Y4108893D01*
X8556093Y4101478D01*
X8547773Y4095095D01*
X8538690Y4089853D01*
X8529000Y4085841D01*
X8518870Y4083128D01*
X8508472Y4081762D01*
X8503229Y4081763D01*
X8497986Y4081762D01*
X8487589Y4083130D01*
X8477460Y4085844D01*
X8467771Y4089856D01*
X8458690Y4095099D01*
X8450370Y4101483D01*
X8442955Y4108897D01*
X8436571Y4117217D01*
X8431328Y4126298D01*
X8427315Y4135986D01*
X8424602Y4146115D01*
X8423233Y4156512D01*
X8423234Y4161755D01*
X8423234Y4161755D01*
X8422999Y4401501D01*
X8582999Y4401500D01*
D02*
G37*
G36*
X8328999D02*
X8329230Y4161755D01*
X8329230Y4156512D01*
X8327863Y4146115D01*
X8325149Y4135985D01*
X8321137Y4126296D01*
X8315893Y4117214D01*
X8309509Y4108893D01*
X8302093Y4101478D01*
X8293773Y4095095D01*
X8284690Y4089853D01*
X8275000Y4085841D01*
X8264870Y4083128D01*
X8254472Y4081762D01*
X8249229Y4081763D01*
X8243986Y4081762D01*
X8233589Y4083130D01*
X8223460Y4085844D01*
X8213771Y4089856D01*
X8204690Y4095099D01*
X8196370Y4101483D01*
X8188955Y4108897D01*
X8182571Y4117217D01*
X8177328Y4126298D01*
X8173315Y4135986D01*
X8170602Y4146115D01*
X8169233Y4156512D01*
X8169234Y4161755D01*
X8169234Y4161755D01*
X8168999Y4401501D01*
X8328999Y4401500D01*
D02*
G37*
G36*
X8074999D02*
X8075230Y4161755D01*
X8075230Y4156512D01*
X8073863Y4146115D01*
X8071149Y4135985D01*
X8067137Y4126296D01*
X8061893Y4117214D01*
X8055509Y4108893D01*
X8048093Y4101478D01*
X8039773Y4095095D01*
X8030690Y4089853D01*
X8021000Y4085841D01*
X8010870Y4083128D01*
X8000472Y4081762D01*
X7995229Y4081763D01*
X7989986Y4081762D01*
X7979589Y4083130D01*
X7969460Y4085844D01*
X7959771Y4089856D01*
X7950690Y4095099D01*
X7942370Y4101483D01*
X7934955Y4108897D01*
X7928571Y4117217D01*
X7923328Y4126298D01*
X7919315Y4135986D01*
X7916602Y4146115D01*
X7915233Y4156512D01*
X7915234Y4161755D01*
X7915234Y4161755D01*
X7914999Y4401501D01*
X8074999Y4401500D01*
D02*
G37*
G36*
X7820999D02*
X7821230Y4161755D01*
X7821230Y4156512D01*
X7819863Y4146115D01*
X7817149Y4135985D01*
X7813137Y4126296D01*
X7807893Y4117214D01*
X7801509Y4108893D01*
X7794093Y4101478D01*
X7785773Y4095095D01*
X7776690Y4089853D01*
X7767000Y4085841D01*
X7756870Y4083128D01*
X7746472Y4081762D01*
X7741229Y4081763D01*
X7735986Y4081762D01*
X7725589Y4083130D01*
X7715460Y4085844D01*
X7705771Y4089856D01*
X7696690Y4095099D01*
X7688370Y4101483D01*
X7680955Y4108897D01*
X7674571Y4117217D01*
X7669328Y4126298D01*
X7665315Y4135986D01*
X7662602Y4146115D01*
X7661233Y4156512D01*
X7661234Y4161755D01*
X7661234Y4161755D01*
X7660999Y4401501D01*
X7820999Y4401500D01*
D02*
G37*
G36*
X7566999D02*
X7567230Y4161755D01*
X7567230Y4156512D01*
X7565863Y4146115D01*
X7563149Y4135985D01*
X7559137Y4126296D01*
X7553893Y4117214D01*
X7547509Y4108893D01*
X7540093Y4101478D01*
X7531773Y4095095D01*
X7522690Y4089853D01*
X7513000Y4085841D01*
X7502870Y4083128D01*
X7492472Y4081762D01*
X7487229Y4081763D01*
X7481986Y4081762D01*
X7471589Y4083130D01*
X7461460Y4085844D01*
X7451771Y4089856D01*
X7442690Y4095099D01*
X7434370Y4101483D01*
X7426955Y4108897D01*
X7420571Y4117217D01*
X7415328Y4126298D01*
X7411315Y4135986D01*
X7408602Y4146115D01*
X7407233Y4156512D01*
X7407234Y4161755D01*
X7407234Y4161755D01*
X7406999Y4401501D01*
X7566999Y4401500D01*
D02*
G37*
G36*
X12313238Y2463742D02*
X12318482Y2463742D01*
X12328878Y2462375D01*
X12339008Y2459661D01*
X12348696Y2455649D01*
X12357778Y2450406D01*
X12366097Y2444022D01*
X12373512Y2436608D01*
X12379896Y2428288D01*
X12385139Y2419207D01*
X12389152Y2409518D01*
X12391866Y2399389D01*
X12393234Y2388993D01*
X12393234Y2383750D01*
X12393234Y2383749D01*
X12393469Y2144004D01*
X12233469Y2144005D01*
X12233238Y2383749D01*
X12233237Y2388993D01*
X12234604Y2399390D01*
X12237318Y2409520D01*
X12241331Y2419209D01*
X12246574Y2428291D01*
X12252958Y2436611D01*
X12260375Y2444026D01*
X12268695Y2450410D01*
X12277778Y2455652D01*
X12287467Y2459664D01*
X12297597Y2462377D01*
X12307995Y2463743D01*
X12313238Y2463742D01*
D02*
G37*
G36*
X12059238D02*
X12064482Y2463742D01*
X12074878Y2462375D01*
X12085008Y2459661D01*
X12094696Y2455649D01*
X12103778Y2450406D01*
X12112097Y2444022D01*
X12119512Y2436608D01*
X12125896Y2428288D01*
X12131139Y2419207D01*
X12135152Y2409518D01*
X12137866Y2399389D01*
X12139234Y2388993D01*
X12139234Y2383750D01*
X12139234Y2383749D01*
X12139469Y2144004D01*
X11979469Y2144005D01*
X11979238Y2383749D01*
X11979237Y2388993D01*
X11980604Y2399390D01*
X11983318Y2409520D01*
X11987331Y2419209D01*
X11992574Y2428291D01*
X11998958Y2436611D01*
X12006375Y2444026D01*
X12014695Y2450410D01*
X12023778Y2455652D01*
X12033467Y2459664D01*
X12043597Y2462377D01*
X12053995Y2463743D01*
X12059238Y2463742D01*
D02*
G37*
G36*
X11805238D02*
X11810482Y2463742D01*
X11820878Y2462375D01*
X11831008Y2459661D01*
X11840696Y2455649D01*
X11849778Y2450406D01*
X11858097Y2444022D01*
X11865512Y2436608D01*
X11871896Y2428288D01*
X11877139Y2419207D01*
X11881152Y2409518D01*
X11883866Y2399389D01*
X11885234Y2388993D01*
X11885234Y2383750D01*
X11885234Y2383749D01*
X11885469Y2144004D01*
X11725469Y2144005D01*
X11725238Y2383749D01*
X11725237Y2388993D01*
X11726604Y2399390D01*
X11729318Y2409520D01*
X11733331Y2419209D01*
X11738574Y2428291D01*
X11744958Y2436611D01*
X11752375Y2444026D01*
X11760695Y2450410D01*
X11769778Y2455652D01*
X11779467Y2459664D01*
X11789597Y2462377D01*
X11799995Y2463743D01*
X11805238Y2463742D01*
D02*
G37*
G36*
X11551238D02*
X11556482Y2463742D01*
X11566878Y2462375D01*
X11577008Y2459661D01*
X11586696Y2455649D01*
X11595778Y2450406D01*
X11604097Y2444022D01*
X11611512Y2436608D01*
X11617896Y2428288D01*
X11623139Y2419207D01*
X11627152Y2409518D01*
X11629866Y2399389D01*
X11631234Y2388993D01*
X11631234Y2383750D01*
X11631234Y2383749D01*
X11631469Y2144004D01*
X11471469Y2144005D01*
X11471238Y2383749D01*
X11471237Y2388993D01*
X11472604Y2399390D01*
X11475318Y2409520D01*
X11479331Y2419209D01*
X11484574Y2428291D01*
X11490958Y2436611D01*
X11498375Y2444026D01*
X11506695Y2450410D01*
X11515778Y2455652D01*
X11525467Y2459664D01*
X11535597Y2462377D01*
X11545995Y2463743D01*
X11551238Y2463742D01*
D02*
G37*
G36*
X11297238D02*
X11302482Y2463742D01*
X11312878Y2462375D01*
X11323008Y2459661D01*
X11332696Y2455649D01*
X11341778Y2450406D01*
X11350097Y2444022D01*
X11357512Y2436608D01*
X11363896Y2428288D01*
X11369139Y2419207D01*
X11373152Y2409518D01*
X11375866Y2399389D01*
X11377234Y2388993D01*
X11377234Y2383750D01*
X11377234Y2383749D01*
X11377469Y2144004D01*
X11217469Y2144005D01*
X11217238Y2383749D01*
X11217237Y2388993D01*
X11218604Y2399390D01*
X11221318Y2409520D01*
X11225331Y2419209D01*
X11230574Y2428291D01*
X11236958Y2436611D01*
X11244375Y2444026D01*
X11252695Y2450410D01*
X11261778Y2455652D01*
X11271467Y2459664D01*
X11281597Y2462377D01*
X11291995Y2463743D01*
X11297238Y2463742D01*
D02*
G37*
G36*
X11043238D02*
X11048482Y2463742D01*
X11058878Y2462375D01*
X11069008Y2459661D01*
X11078696Y2455649D01*
X11087778Y2450406D01*
X11096097Y2444022D01*
X11103512Y2436608D01*
X11109896Y2428288D01*
X11115139Y2419207D01*
X11119152Y2409518D01*
X11121866Y2399389D01*
X11123234Y2388993D01*
X11123234Y2383750D01*
X11123234Y2383749D01*
X11123469Y2144004D01*
X10963469Y2144005D01*
X10963238Y2383749D01*
X10963237Y2388993D01*
X10964604Y2399390D01*
X10967318Y2409520D01*
X10971331Y2419209D01*
X10976574Y2428291D01*
X10982958Y2436611D01*
X10990375Y2444026D01*
X10998695Y2450410D01*
X11007778Y2455652D01*
X11017467Y2459664D01*
X11027597Y2462377D01*
X11037995Y2463743D01*
X11043238Y2463742D01*
D02*
G37*
G36*
X10789238D02*
X10794482Y2463742D01*
X10804878Y2462375D01*
X10815008Y2459661D01*
X10824696Y2455649D01*
X10833778Y2450406D01*
X10842097Y2444022D01*
X10849512Y2436608D01*
X10855896Y2428288D01*
X10861139Y2419207D01*
X10865152Y2409518D01*
X10867866Y2399389D01*
X10869234Y2388993D01*
X10869234Y2383750D01*
X10869234Y2383749D01*
X10869469Y2144004D01*
X10709469Y2144005D01*
X10709238Y2383749D01*
X10709237Y2388993D01*
X10710604Y2399390D01*
X10713318Y2409520D01*
X10717331Y2419209D01*
X10722574Y2428291D01*
X10728958Y2436611D01*
X10736375Y2444026D01*
X10744695Y2450410D01*
X10753778Y2455652D01*
X10763467Y2459664D01*
X10773597Y2462377D01*
X10783995Y2463743D01*
X10789238Y2463742D01*
D02*
G37*
G36*
X10535238D02*
X10540482Y2463742D01*
X10550878Y2462375D01*
X10561008Y2459661D01*
X10570696Y2455649D01*
X10579778Y2450406D01*
X10588097Y2444022D01*
X10595512Y2436608D01*
X10601896Y2428288D01*
X10607139Y2419207D01*
X10611152Y2409518D01*
X10613866Y2399389D01*
X10615234Y2388993D01*
X10615234Y2383750D01*
X10615234Y2383749D01*
X10615469Y2144004D01*
X10455469Y2144005D01*
X10455238Y2383749D01*
X10455237Y2388993D01*
X10456604Y2399390D01*
X10459318Y2409520D01*
X10463331Y2419209D01*
X10468574Y2428291D01*
X10474958Y2436611D01*
X10482375Y2444026D01*
X10490695Y2450410D01*
X10499778Y2455652D01*
X10509467Y2459664D01*
X10519597Y2462377D01*
X10529995Y2463743D01*
X10535238Y2463742D01*
D02*
G37*
G36*
X10281238D02*
X10286482Y2463742D01*
X10296878Y2462375D01*
X10307008Y2459661D01*
X10316696Y2455649D01*
X10325778Y2450406D01*
X10334097Y2444022D01*
X10341512Y2436608D01*
X10347896Y2428288D01*
X10353139Y2419207D01*
X10357152Y2409518D01*
X10359866Y2399389D01*
X10361234Y2388993D01*
X10361234Y2383750D01*
X10361234Y2383749D01*
X10361469Y2144004D01*
X10201469Y2144005D01*
X10201238Y2383749D01*
X10201237Y2388993D01*
X10202604Y2399390D01*
X10205318Y2409520D01*
X10209331Y2419209D01*
X10214574Y2428291D01*
X10220958Y2436611D01*
X10228375Y2444026D01*
X10236695Y2450410D01*
X10245778Y2455652D01*
X10255467Y2459664D01*
X10265597Y2462377D01*
X10275995Y2463743D01*
X10281238Y2463742D01*
D02*
G37*
G36*
X10027238D02*
X10032482Y2463742D01*
X10042878Y2462375D01*
X10053008Y2459661D01*
X10062696Y2455649D01*
X10071778Y2450406D01*
X10080097Y2444022D01*
X10087512Y2436608D01*
X10093896Y2428288D01*
X10099139Y2419207D01*
X10103152Y2409518D01*
X10105866Y2399389D01*
X10107234Y2388993D01*
X10107234Y2383750D01*
X10107234Y2383749D01*
X10107469Y2144004D01*
X9947469Y2144005D01*
X9947238Y2383749D01*
X9947237Y2388993D01*
X9948604Y2399390D01*
X9951318Y2409520D01*
X9955331Y2419209D01*
X9960574Y2428291D01*
X9966958Y2436611D01*
X9974375Y2444026D01*
X9982695Y2450410D01*
X9991778Y2455652D01*
X10001467Y2459664D01*
X10011597Y2462377D01*
X10021995Y2463743D01*
X10027238Y2463742D01*
D02*
G37*
G36*
X9773238D02*
X9778482Y2463742D01*
X9788878Y2462375D01*
X9799008Y2459661D01*
X9808696Y2455649D01*
X9817778Y2450406D01*
X9826097Y2444022D01*
X9833512Y2436608D01*
X9839896Y2428288D01*
X9845139Y2419207D01*
X9849152Y2409518D01*
X9851866Y2399389D01*
X9853234Y2388993D01*
X9853234Y2383750D01*
X9853234Y2383749D01*
X9853469Y2144004D01*
X9693469Y2144005D01*
X9693238Y2383749D01*
X9693237Y2388993D01*
X9694604Y2399390D01*
X9697318Y2409520D01*
X9701331Y2419209D01*
X9706574Y2428291D01*
X9712958Y2436611D01*
X9720375Y2444026D01*
X9728695Y2450410D01*
X9737778Y2455652D01*
X9747467Y2459664D01*
X9757597Y2462377D01*
X9767995Y2463743D01*
X9773238Y2463742D01*
D02*
G37*
G36*
X9519238D02*
X9524482Y2463742D01*
X9534878Y2462375D01*
X9545008Y2459661D01*
X9554696Y2455649D01*
X9563778Y2450406D01*
X9572097Y2444022D01*
X9579512Y2436608D01*
X9585896Y2428288D01*
X9591139Y2419207D01*
X9595152Y2409518D01*
X9597866Y2399389D01*
X9599234Y2388993D01*
X9599234Y2383750D01*
X9599234Y2383749D01*
X9599469Y2144004D01*
X9439469Y2144005D01*
X9439238Y2383749D01*
X9439237Y2388993D01*
X9440604Y2399390D01*
X9443318Y2409520D01*
X9447331Y2419209D01*
X9452574Y2428291D01*
X9458958Y2436611D01*
X9466375Y2444026D01*
X9474695Y2450410D01*
X9483778Y2455652D01*
X9493467Y2459664D01*
X9503597Y2462377D01*
X9513995Y2463743D01*
X9519238Y2463742D01*
D02*
G37*
G36*
X9265238D02*
X9270482Y2463742D01*
X9280878Y2462375D01*
X9291008Y2459661D01*
X9300696Y2455649D01*
X9309778Y2450406D01*
X9318097Y2444022D01*
X9325512Y2436608D01*
X9331896Y2428288D01*
X9337139Y2419207D01*
X9341152Y2409518D01*
X9343866Y2399389D01*
X9345234Y2388993D01*
X9345234Y2383750D01*
X9345234Y2383749D01*
X9345469Y2144004D01*
X9185469Y2144005D01*
X9185238Y2383749D01*
X9185237Y2388993D01*
X9186604Y2399390D01*
X9189318Y2409520D01*
X9193331Y2419209D01*
X9198574Y2428291D01*
X9204958Y2436611D01*
X9212375Y2444026D01*
X9220695Y2450410D01*
X9229778Y2455652D01*
X9239467Y2459664D01*
X9249597Y2462377D01*
X9259995Y2463743D01*
X9265238Y2463742D01*
D02*
G37*
G36*
X9011238D02*
X9016482Y2463742D01*
X9026878Y2462375D01*
X9037008Y2459661D01*
X9046696Y2455649D01*
X9055778Y2450406D01*
X9064097Y2444022D01*
X9071512Y2436608D01*
X9077896Y2428288D01*
X9083139Y2419207D01*
X9087152Y2409518D01*
X9089866Y2399389D01*
X9091234Y2388993D01*
X9091234Y2383750D01*
X9091234Y2383749D01*
X9091469Y2144004D01*
X8931469Y2144005D01*
X8931238Y2383749D01*
X8931237Y2388993D01*
X8932604Y2399390D01*
X8935318Y2409520D01*
X8939331Y2419209D01*
X8944574Y2428291D01*
X8950958Y2436611D01*
X8958375Y2444026D01*
X8966695Y2450410D01*
X8975778Y2455652D01*
X8985467Y2459664D01*
X8995597Y2462377D01*
X9005995Y2463743D01*
X9011238Y2463742D01*
D02*
G37*
G36*
X8757238D02*
X8762482Y2463742D01*
X8772878Y2462375D01*
X8783008Y2459661D01*
X8792696Y2455649D01*
X8801778Y2450406D01*
X8810097Y2444022D01*
X8817512Y2436608D01*
X8823896Y2428288D01*
X8829139Y2419207D01*
X8833152Y2409518D01*
X8835866Y2399389D01*
X8837234Y2388993D01*
X8837234Y2383750D01*
X8837234Y2383749D01*
X8837469Y2144004D01*
X8677469Y2144005D01*
X8677238Y2383749D01*
X8677237Y2388993D01*
X8678604Y2399390D01*
X8681318Y2409520D01*
X8685331Y2419209D01*
X8690574Y2428291D01*
X8696958Y2436611D01*
X8704375Y2444026D01*
X8712695Y2450410D01*
X8721778Y2455652D01*
X8731467Y2459664D01*
X8741597Y2462377D01*
X8751995Y2463743D01*
X8757238Y2463742D01*
D02*
G37*
G36*
X8503238D02*
X8508482Y2463742D01*
X8518878Y2462375D01*
X8529008Y2459661D01*
X8538696Y2455649D01*
X8547778Y2450406D01*
X8556097Y2444022D01*
X8563512Y2436608D01*
X8569896Y2428288D01*
X8575139Y2419207D01*
X8579152Y2409518D01*
X8581866Y2399389D01*
X8583234Y2388993D01*
X8583234Y2383750D01*
X8583234Y2383749D01*
X8583469Y2144004D01*
X8423469Y2144005D01*
X8423238Y2383749D01*
X8423237Y2388993D01*
X8424604Y2399390D01*
X8427318Y2409520D01*
X8431331Y2419209D01*
X8436574Y2428291D01*
X8442958Y2436611D01*
X8450375Y2444026D01*
X8458695Y2450410D01*
X8467778Y2455652D01*
X8477467Y2459664D01*
X8487597Y2462377D01*
X8497995Y2463743D01*
X8503238Y2463742D01*
D02*
G37*
G36*
X8249238D02*
X8254482Y2463742D01*
X8264878Y2462375D01*
X8275008Y2459661D01*
X8284696Y2455649D01*
X8293778Y2450406D01*
X8302097Y2444022D01*
X8309512Y2436608D01*
X8315896Y2428288D01*
X8321139Y2419207D01*
X8325152Y2409518D01*
X8327866Y2399389D01*
X8329234Y2388993D01*
X8329234Y2383750D01*
X8329234Y2383749D01*
X8329469Y2144004D01*
X8169469Y2144005D01*
X8169238Y2383749D01*
X8169237Y2388993D01*
X8170604Y2399390D01*
X8173318Y2409520D01*
X8177331Y2419209D01*
X8182574Y2428291D01*
X8188958Y2436611D01*
X8196375Y2444026D01*
X8204695Y2450410D01*
X8213778Y2455652D01*
X8223467Y2459664D01*
X8233597Y2462377D01*
X8243995Y2463743D01*
X8249238Y2463742D01*
D02*
G37*
G36*
X7995238D02*
X8000482Y2463742D01*
X8010878Y2462375D01*
X8021008Y2459661D01*
X8030696Y2455649D01*
X8039778Y2450406D01*
X8048097Y2444022D01*
X8055512Y2436608D01*
X8061896Y2428288D01*
X8067139Y2419207D01*
X8071152Y2409518D01*
X8073866Y2399389D01*
X8075234Y2388993D01*
X8075234Y2383750D01*
X8075234Y2383749D01*
X8075469Y2144004D01*
X7915469Y2144005D01*
X7915238Y2383749D01*
X7915237Y2388993D01*
X7916604Y2399390D01*
X7919318Y2409520D01*
X7923331Y2419209D01*
X7928574Y2428291D01*
X7934958Y2436611D01*
X7942375Y2444026D01*
X7950695Y2450410D01*
X7959778Y2455652D01*
X7969467Y2459664D01*
X7979597Y2462377D01*
X7989995Y2463743D01*
X7995238Y2463742D01*
D02*
G37*
G36*
X7741238D02*
X7746482Y2463742D01*
X7756878Y2462375D01*
X7767008Y2459661D01*
X7776696Y2455649D01*
X7785778Y2450406D01*
X7794097Y2444022D01*
X7801512Y2436608D01*
X7807896Y2428288D01*
X7813139Y2419207D01*
X7817152Y2409518D01*
X7819866Y2399389D01*
X7821234Y2388993D01*
X7821234Y2383750D01*
X7821234Y2383749D01*
X7821469Y2144004D01*
X7661469Y2144005D01*
X7661238Y2383749D01*
X7661237Y2388993D01*
X7662604Y2399390D01*
X7665318Y2409520D01*
X7669331Y2419209D01*
X7674574Y2428291D01*
X7680958Y2436611D01*
X7688375Y2444026D01*
X7696695Y2450410D01*
X7705778Y2455652D01*
X7715467Y2459664D01*
X7725597Y2462377D01*
X7735995Y2463743D01*
X7741238Y2463742D01*
D02*
G37*
G36*
X7487238D02*
X7492482Y2463742D01*
X7502878Y2462375D01*
X7513008Y2459661D01*
X7522696Y2455649D01*
X7531778Y2450406D01*
X7540097Y2444022D01*
X7547512Y2436608D01*
X7553896Y2428288D01*
X7559139Y2419207D01*
X7563152Y2409518D01*
X7565866Y2399389D01*
X7567234Y2388993D01*
X7567234Y2383750D01*
X7567234Y2383749D01*
X7567469Y2144004D01*
X7407469Y2144005D01*
X7407238Y2383749D01*
X7407237Y2388993D01*
X7408604Y2399390D01*
X7411318Y2409520D01*
X7415331Y2419209D01*
X7420574Y2428291D01*
X7426958Y2436611D01*
X7434375Y2444026D01*
X7442695Y2450410D01*
X7451778Y2455652D01*
X7461467Y2459664D01*
X7471597Y2462377D01*
X7481995Y2463743D01*
X7487238Y2463742D01*
D02*
G37*
D13*
X9986600Y5231600D02*
D03*
Y5381600D02*
D03*
X10158600Y5231600D02*
D03*
Y5381600D02*
D03*
Y5281600D02*
D03*
Y5331600D02*
D03*
X9986600Y5281600D02*
D03*
Y5331600D02*
D03*
D14*
X11137600Y5019999D02*
D03*
X8177600Y5016600D02*
D03*
X10782500Y1005000D02*
D03*
X9260000Y1402500D02*
D03*
X5110000Y5000001D02*
D03*
X5602500Y4707500D02*
D03*
X5102500Y4780000D02*
D03*
X5873900Y4076700D02*
D03*
X7029600Y393700D02*
D03*
X6026300D02*
D03*
X4667400Y381000D02*
D03*
X10997600Y5019999D02*
D03*
X8037600Y5016600D02*
D03*
X5250000Y5000001D02*
D03*
X5597500Y4532500D02*
D03*
X5733900Y4076700D02*
D03*
X5242500Y4780000D02*
D03*
X6762900Y266700D02*
D03*
X5772300Y254000D02*
D03*
X4400700D02*
D03*
X9122500Y1542500D02*
D03*
X9120000Y1402500D02*
D03*
X11140000Y732500D02*
D03*
X11280000D02*
D03*
X6622900Y266700D02*
D03*
Y393700D02*
D03*
X4260700Y254000D02*
D03*
Y381000D02*
D03*
X5632300Y254000D02*
D03*
Y393700D02*
D03*
X11280000Y885000D02*
D03*
X11140000D02*
D03*
X10922500Y1005000D02*
D03*
X10270000Y1247500D02*
D03*
X10410000D02*
D03*
X9262500Y1542500D02*
D03*
X4527400Y381000D02*
D03*
X4400700Y381000D02*
D03*
X5462500Y4707500D02*
D03*
X5457500Y4532500D02*
D03*
X5886300Y393700D02*
D03*
X5772300Y393700D02*
D03*
X6762900D02*
D03*
X6889600Y393700D02*
D03*
D15*
X11110100Y5152500D02*
D03*
X11030100D02*
D03*
Y5292500D02*
D03*
X11110100D02*
D03*
D16*
X9870100Y5239100D02*
D03*
X8397600Y5361600D02*
D03*
X9315100Y5219100D02*
D03*
X11836400Y1504800D02*
D03*
X11122500Y1492500D02*
D03*
X11122500Y1345000D02*
D03*
X10407500Y1390000D02*
D03*
X5334000Y3511400D02*
D03*
X4985000Y3932500D02*
D03*
X9870100Y5379100D02*
D03*
X9315100Y5359100D02*
D03*
X8397600Y5221600D02*
D03*
X7861300Y5073500D02*
D03*
X6492500Y4060000D02*
D03*
X4985000Y4072500D02*
D03*
X5334000Y3651400D02*
D03*
X11122500Y1205000D02*
D03*
X7861300Y5213500D02*
D03*
X6492500Y3920000D02*
D03*
X4800600Y3321200D02*
D03*
X5667021D02*
D03*
X5805310D02*
D03*
X5667021Y3181200D02*
D03*
X5805310D02*
D03*
X5943599D02*
D03*
X5252155D02*
D03*
X5390444D02*
D03*
X5528732D02*
D03*
X11122500Y1632500D02*
D03*
X10407500Y1530000D02*
D03*
X11836400Y1644800D02*
D03*
X4800600Y3181200D02*
D03*
X4953000D02*
D03*
Y3321200D02*
D03*
X5105400Y3181200D02*
D03*
Y3321200D02*
D03*
X5252155D02*
D03*
X5390444D02*
D03*
X5528732D02*
D03*
X5943599D02*
D03*
D17*
X12300000Y3545000D02*
D03*
Y3000000D02*
D03*
D18*
X11997000Y3515000D02*
D03*
Y3030000D02*
D03*
D19*
X9155100Y5191599D02*
D03*
Y5391600D02*
D03*
X8955100Y5191599D02*
D03*
Y5391600D02*
D03*
D20*
X8245700Y5364300D02*
D03*
Y5314300D02*
D03*
X7975700D02*
D03*
Y5264300D02*
D03*
X8245700Y5214300D02*
D03*
X7975700Y5364300D02*
D03*
Y5214300D02*
D03*
X8245700Y5264300D02*
D03*
D21*
X8160700Y5179300D02*
D03*
X8110700D02*
D03*
X8060700D02*
D03*
X8110700Y5399300D02*
D03*
X8060700D02*
D03*
X8160700D02*
D03*
D22*
X12000000Y3272500D02*
D03*
X12330000Y3372500D02*
D03*
Y3172500D02*
D03*
X11500000Y3522500D02*
D03*
X11250000D02*
D03*
X11000000D02*
D03*
D23*
X10762500Y1252500D02*
D03*
X10667500D02*
D03*
X10857500D02*
D03*
Y1532500D02*
D03*
X10667500D02*
D03*
D24*
X9330000Y2960090D02*
D03*
Y2706090D02*
D03*
D25*
X9543974Y1387500D02*
D03*
X9750000Y1482500D02*
D03*
D26*
X10710000Y432500D02*
D03*
X10805000Y232500D02*
D03*
X10615000D02*
D03*
X11215000Y432500D02*
D03*
X11310000Y232500D02*
D03*
X11120000D02*
D03*
X12102500Y2022500D02*
D03*
X12292500D02*
D03*
X12197500Y1822500D02*
D03*
D27*
X5377500Y4072500D02*
D03*
D28*
X5575000Y4032500D02*
D03*
X5180000Y4112500D02*
D03*
X5575000Y4072500D02*
D03*
X5180000D02*
D03*
Y4152500D02*
D03*
Y3992500D02*
D03*
X5575000Y4152500D02*
D03*
Y3992500D02*
D03*
Y4192500D02*
D03*
X5180000D02*
D03*
Y4032500D02*
D03*
Y3952500D02*
D03*
X5575000D02*
D03*
Y4112500D02*
D03*
D29*
X6981250Y2147500D02*
D03*
Y1967500D02*
D03*
Y2057500D02*
D03*
X5733750Y2147500D02*
D03*
Y1967500D02*
D03*
Y2057500D02*
D03*
X4486250Y2147500D02*
D03*
Y1967500D02*
D03*
Y2057500D02*
D03*
X6686250Y1967500D02*
D03*
Y2057500D02*
D03*
Y2147500D02*
D03*
X5438750Y1967500D02*
D03*
Y2057500D02*
D03*
Y2147500D02*
D03*
X4191250D02*
D03*
Y2057500D02*
D03*
Y1967500D02*
D03*
D30*
X7308300Y1185700D02*
D03*
X6398300D02*
D03*
X6060800D02*
D03*
X3903300D02*
D03*
X5150800D02*
D03*
X4813300D02*
D03*
X7308300Y735700D02*
D03*
X6398300D02*
D03*
X3903300D02*
D03*
X4813300D02*
D03*
X6060800D02*
D03*
X5150800D02*
D03*
D31*
X5417500Y3875000D02*
D03*
X5377500Y4270000D02*
D03*
X5417500D02*
D03*
X5297500Y3875000D02*
D03*
X5337500D02*
D03*
X5257500D02*
D03*
X5377500D02*
D03*
X5457500D02*
D03*
X5497500D02*
D03*
Y4270000D02*
D03*
X5457500D02*
D03*
X5337500D02*
D03*
X5297500D02*
D03*
X5257500D02*
D03*
D32*
X9300000Y815000D02*
D03*
D33*
X8975000Y915000D02*
D03*
Y715000D02*
D03*
D34*
X10140000Y1575000D02*
D03*
Y1425000D02*
D03*
D35*
X9543974Y1577500D02*
D03*
D36*
X9330000Y3214090D02*
D03*
D118*
X10922491Y739997D02*
D03*
X10922493Y839996D02*
D03*
X10807496Y739995D02*
D03*
X10807508Y840003D02*
D03*
D119*
X10922468Y789994D02*
D03*
X10807498Y790040D02*
D03*
%TF.MD5,6e1165ddaeb6ad10441d1a716606027d*%
M02*
